PathFileType	3	(X/Y/Z)	D:\VICON_DB\Goncalves\Pilot01\09-03-2026\bw_sq_02.trc
DataRate	CameraRate	NumFrames	NumMarkers	Units	OrigDataRate	OrigDataStartFrame	OrigNumFrames
200.0	200.0	10	34	mm	200.0	84	670	
Frame#	Time	LASI			RASI			LPSI			RPSI			LTHI			LTHAP			LTHAD			LKNE			LKNM			LTIB			LTIAP			LTIAD			LANK			LMED			LHEE			LTOE			LFMH			LSMH			LVMH			RTHI			RTHAP			RTHAD			RKNE			RKNM			RTIB			RTIAP			RTIAD			RANK			RMED			RHEE			RTOE			RFMH			RSMH			RVMH			
		X1	Y1	Z1	X2	Y2	Z2	X3	Y3	Z3	X4	Y4	Z4	X5	Y5	Z5	X6	Y6	Z6	X7	Y7	Z7	X8	Y8	Z8	X9	Y9	Z9	X10	Y10	Z10	X11	Y11	Z11	X12	Y12	Z12	X13	Y13	Z13	X14	Y14	Z14	X15	Y15	Z15	X16	Y16	Z16	X17	Y17	Z17	X18	Y18	Z18	X19	Y19	Z19	X20	Y20	Z20	X21	Y21	Z21	X22	Y22	Z22	X23	Y23	Z23	X24	Y24	Z24	X25	Y25	Z25	X26	Y26	Z26	X27	Y27	Z27	X28	Y28	Z28	X29	Y29	Z29	X30	Y30	Z30	X31	Y31	Z31	X32	Y32	Z32	X33	Y33	Z33	X34	Y34	Z34	
84	0.415	130.69562	904.59113	-1069.9949	125.55832	901.50555	-1325.8319				326.12704	953.14075	-1225.8777	130.29254	699.70782	-1030.944	150.03572	772.74207	-1017.792	171.98619	633.85492	-1007.8324	212.20058	475.25385	-1025.7438				256.28427	281.09476	-1006.4604	192.61075	354.08624	-1060.5839	216.09518	251.67227	-1033.974	285.53891	70.84726	-1030.2068				327.90762	64.343208	-1083.907	204.97723	71.382286	-1050.0072	148.60103	44.693825	-1076.0491				163.46861	25.107599	-995.13025	165.08916	626.02881	-1375.9172	129.25656	752.62024	-1355.0129	109.07925	660.88324	-1334.3442	212.38326	490.06546	-1360.3058				237.74405	294.11896	-1378.521	196.61037	342.80847	-1323.6776	206.71408	261.44196	-1325.8239	294.0791	62.397598	-1351.6134				330.59845	59.512856	-1310.792	201.98582	68.55542	-1334.7251	152.19429	48.780941	-1309.8099				164.99547	19.604246	-1383.7079
85	0.42	130.96956	904.56146	-1070.0706	125.84735	901.47766	-1325.8893				326.41406	953.38715	-1225.9668	130.34325	699.77155	-1031.0297	150.19856	772.76239	-1017.8908	171.88454	633.86664	-1007.8038	211.81358	475.19199	-1025.7369				255.99998	281.05002	-1006.4686	192.20654	353.9845	-1060.5424	215.82907	251.58295	-1033.9568	285.52155	70.869347	-1030.2024				327.85693	64.387184	-1083.9282	204.95784	71.375298	-1050.0143	148.5788	44.69278	-1076.0367				163.46573	25.101749	-995.11884	165.04559	626.04144	-1375.9481	129.41682	752.68518	-1355.0458	109.08056	660.99316	-1334.3761	212.14742	490.02087	-1360.2903				237.52359	294.06909	-1378.5083	196.34668	342.73083	-1323.6636	206.52666	261.36862	-1325.8035	294.06522	62.4091	-1351.6106				330.57431	59.528793	-1310.7831	201.97365	68.558205	-1334.7217	152.18002	48.783966	-1309.8143				164.99161	19.605227	-1383.7108
86	0.425	131.26047	904.52814	-1070.1445	126.15221	901.44641	-1325.9474				326.71884	953.63232	-1226.0544	130.4048	699.83514	-1031.1162	150.37695	772.78174	-1017.9918	171.79182	633.8772	-1007.776	211.43117	475.12906	-1025.7278				255.71701	281.00403	-1006.4746	191.80444	353.88162	-1060.4971	215.56482	251.49307	-1033.9376	285.50409	70.890846	-1030.2				327.80707	64.431122	-1083.95	204.93938	71.367706	-1050.021	148.55716	44.691429	-1076.0247				163.46329	25.095264	-995.10779	165.01468	626.05396	-1375.9818	129.59294	752.75031	-1355.078	109.09637	661.10358	-1334.4072	211.92027	489.97745	-1360.2783				237.3074	294.01849	-1378.4989	196.08849	342.65305	-1323.6522	206.34462	261.29495	-1325.785	294.05273	62.41996	-1351.6104				330.5513	59.542969	-1310.7743	201.96266	68.559959	-1334.7192	152.16661	48.786751	-1309.8198				164.98775	19.605488	-1383.7147
87	0.43	131.56859	904.49078	-1070.2172	126.47338	901.41144	-1326.0065				327.0416	953.87646	-1226.1404	130.47754	699.89832	-1031.2031	150.5712	772.79993	-1018.0945	171.70813	633.88678	-1007.7487	211.05295	475.0654	-1025.7158				255.43526	280.95691	-1006.4783	191.40425	353.77759	-1060.4484	215.30226	251.40274	-1033.9166	285.48621	70.911583	-1030.2				327.75809	64.475151	-1083.9719	204.92148	71.359589	-1050.0281	148.53612	44.68964	-1076.0131				163.46133	25.088295	-995.09711	164.99727	626.06653	-1376.0193	129.78554	752.81488	-1355.1101	109.12763	661.21454	-1334.4386	211.70247	489.93527	-1360.2697				237.09668	293.96732	-1378.4926	195.83572	342.57523	-1323.6447	206.16768	261.22101	-1325.769	294.04175	62.430088	-1351.6122				330.5296	59.555252	-1310.766	201.95306	68.560745	-1334.7175	152.15419	48.789112	-1309.826				164.98389	19.605093	-1383.7192
88	0.435	131.8941	904.44916	-1070.2883	126.81139	901.37238	-1326.066				327.38281	954.12018	-1226.2247	130.56178	699.96094	-1031.2906	150.78162	772.81683	-1018.1997	171.63348	633.8952	-1007.7214	210.6783	475.00113	-1025.7012				255.15437	280.90878	-1006.4792	191.00568	353.67224	-1060.3969	215.04108	251.31201	-1033.8939	285.46722	70.93158	-1030.2026				327.70975	64.519478	-1083.9949	204.90384	71.351105	-1050.0355	148.51564	44.687363	-1076.0022				163.45973	25.081079	-995.08698	164.99397	626.07941	-1376.0614	129.99522	752.87897	-1355.1436	109.17521	661.32562	-1334.4707	211.49445	489.89423	-1360.264				236.89241	293.91553	-1378.4897	195.58797	342.49777	-1323.6411	205.99559	261.14694	-1325.7566	294.03247	62.439461	-1351.6162				330.50919	59.56559	-1310.7574	201.94495	68.560669	-1334.7168	152.14296	48.790958	-1309.833				164.98007	19.604193	-1383.7249
89	0.44	132.23732	904.40283	-1070.3579	127.16695	901.32886	-1326.1261				327.74283	954.36395	-1226.3074	130.65805	700.02313	-1031.3788	151.00867	772.8324	-1018.3069	171.56767	633.90277	-1007.6937	210.30624	474.93625	-1025.6836				254.87375	280.85992	-1006.4774	190.60802	353.56561	-1060.3427	214.78075	251.22098	-1033.8696	285.44656	70.950874	-1030.2083				327.66193	64.564407	-1084.0187	204.88625	71.342377	-1050.0431	148.49576	44.684601	-1075.9923				163.45853	25.073919	-995.07745	165.00531	626.09283	-1376.1093	130.22264	752.94214	-1355.1786	109.23975	661.43695	-1334.5049	211.29659	489.85422	-1360.2612				236.69537	293.86337	-1378.49	195.34459	342.42087	-1323.6423	205.82809	261.07269	-1325.7478	294.02493	62.44812	-1351.6221				330.49017	59.574043	-1310.7487	201.93835	68.559959	-1334.7169	152.13301	48.792282	-1309.8412				164.97649	19.60284	-1383.7311
90	0.445	132.59851	904.35162	-1070.4263	127.54079	901.28064	-1326.1863				328.12219	954.60864	-1226.3881	130.76686	700.08478	-1031.4675	151.25279	772.84631	-1018.417	171.51057	633.90961	-1007.6647	209.93561	474.87079	-1025.6628				254.59262	280.81036	-1006.4724	190.21034	353.45776	-1060.2861	214.52063	251.12956	-1033.8439	285.42355	70.96949	-1030.2167				327.61453	64.610222	-1084.0435	204.86856	71.333618	-1050.0513	148.47644	44.681427	-1075.9833				163.45757	25.067144	-995.06873	165.03168	626.1073	-1376.1626	130.46852	753.0047	-1355.2161	109.32167	661.54865	-1334.5415	211.1091	489.81491	-1360.2606				236.50604	293.811	-1378.4934	195.10483	342.3446	-1323.6488	205.66501	260.99829	-1325.7434	294.01929	62.456177	-1351.6296				330.4725	59.580746	-1310.7396	201.93343	68.558929	-1334.7178	152.12453	48.793186	-1309.8499				164.97351	19.600878	-1383.7382
91	0.45	132.978	904.29529	-1070.493	127.93374	901.22742	-1326.2469				328.52136	954.85516	-1226.4669	130.88895	700.146	-1031.5577	151.51463	772.8584	-1018.53	171.46201	633.91565	-1007.6342	209.56511	474.80478	-1025.6388				254.3102	280.76022	-1006.464	189.81142	353.34885	-1060.2275	214.26009	251.03763	-1033.8165	285.39764	70.987442	-1030.228				327.56738	64.65715	-1084.0692	204.85069	71.325043	-1050.0596	148.45764	44.677959	-1075.9755				163.45685	25.061079	-995.06079	165.07321	626.1228	-1376.2224	130.73343	753.06659	-1355.2559	109.42127	661.66083	-1334.5819	210.93187	489.77609	-1360.2615				236.32445	293.75851	-1378.5002	194.86783	342.26849	-1323.6609	205.50603	260.9234	-1325.7437	294.01541	62.463726	-1351.6384				330.45612	59.585911	-1310.7302	201.93016	68.557899	-1334.7194	152.11758	48.793846	-1309.8596				164.9716	19.598007	-1383.745
92	0.455	133.3761	904.2334	-1070.5582	128.34659	901.16895	-1326.308				328.94064	955.10437	-1226.5438	131.02518	700.20691	-1031.6495	151.79486	772.86804	-1018.6461	171.42178	633.92139	-1007.6016	209.19324	474.73813	-1025.6113				254.02538	280.70963	-1006.4517	189.40991	353.23886	-1060.1669	213.99823	250.94495	-1033.7874	285.36838	71.004692	-1030.2421				327.52026	64.705376	-1084.0957	204.8326	71.31694	-1050.068	148.43935	44.674366	-1075.9684				163.45627	25.055965	-995.05377	165.13002	626.13971	-1376.2885	131.01796	753.12817	-1355.298	109.5388	661.77386	-1334.626	210.76445	489.73773	-1360.2634				236.15021	293.7059	-1378.5096	194.63274	342.19186	-1323.6779	205.35063	260.84796	-1325.7485	294.01334	62.470879	-1351.6482				330.44098	59.589752	-1310.72	201.92853	68.557182	-1334.7217	152.11229	48.79446	-1309.87				164.97116	19.593943	-1383.7513
93	0.46	133.79311	904.16571	-1070.6215	128.78027	901.1048	-1326.3691				329.37982	955.35657	-1226.6188	131.17656	700.26746	-1031.7435	152.09419	772.87494	-1018.7654	171.38986	633.92657	-1007.5666	208.81851	474.67068	-1025.5797				253.73709	280.65851	-1006.4352	189.00439	353.12756	-1060.1041	213.73413	250.85115	-1033.7565	285.33514	71.02121	-1030.2583				327.47308	64.754959	-1084.1226	204.81439	71.309624	-1050.0767	148.42149	44.670795	-1075.9625				163.45573	25.051958	-995.04749	165.2019	626.15808	-1376.3606	131.32246	753.18964	-1355.3427	109.67429	661.88788	-1334.674	210.60594	489.69949	-1360.266				235.98236	293.65326	-1378.5214	194.39842	342.11395	-1323.6997	205.19804	260.77148	-1325.7576	294.01297	62.47768	-1351.6587				330.42691	59.592491	-1310.7089	201.92842	68.557007	-1334.7245	152.1088	48.795212	-1309.881				164.97252	19.588541	-1383.7568
